<svg width="342" height="162" viewBox="0 0 342 162" fill="none" xmlns="http://www.w3.org/2000/svg">
<g filter="url(#filter0_ddii_2_10598)">
<rect x="38.5" y="36" width="251" height="42" rx="21" fill="#272727" shape-rendering="crispEdges"/>
<rect x="36.5" y="34" width="255" height="46" rx="23" stroke="url(#paint0_linear_2_10598)" stroke-width="4" shape-rendering="crispEdges"/>
<path fill-rule="evenodd" clip-rule="evenodd" d="M85.9797 56.9797L87.5257 52.3419H88.4743L90.0203 56.9797L94.6581 58.5256V59.4743L90.0203 61.0203L88.4743 65.6581H87.5257L85.9797 61.0203L81.3419 59.4743V58.5256L85.9797 56.9797Z" fill="white"/>
<path fill-rule="evenodd" clip-rule="evenodd" d="M94.7297 50.7297L95.5257 48.3419H96.4743L97.2703 50.7297L99.6581 51.5256V52.4743L97.2703 53.2703L96.4743 55.6581H95.5257L94.7297 53.2703L92.3419 52.4743V51.5256L94.7297 50.7297Z" fill="white"/>
<path d="M120.601 55.1477H118.829C118.76 54.7689 118.633 54.4356 118.448 54.1477C118.262 53.8598 118.035 53.6155 117.766 53.4148C117.497 53.214 117.196 53.0625 116.863 52.9602C116.533 52.858 116.183 52.8068 115.812 52.8068C115.141 52.8068 114.541 52.9754 114.01 53.3125C113.484 53.6496 113.067 54.1439 112.76 54.7955C112.457 55.447 112.306 56.2424 112.306 57.1818C112.306 58.1288 112.457 58.928 112.76 59.5795C113.067 60.2311 113.486 60.7235 114.016 61.0568C114.546 61.3902 115.143 61.5568 115.806 61.5568C116.173 61.5568 116.522 61.5076 116.851 61.4091C117.185 61.3068 117.486 61.1572 117.755 60.9602C118.024 60.7633 118.251 60.5227 118.437 60.2386C118.626 59.9508 118.757 59.6212 118.829 59.25L120.601 59.2557C120.507 59.8277 120.323 60.3542 120.05 60.8352C119.781 61.3125 119.435 61.7254 119.01 62.0739C118.59 62.4186 118.109 62.6856 117.567 62.875C117.026 63.0644 116.435 63.1591 115.794 63.1591C114.787 63.1591 113.889 62.9205 113.101 62.4432C112.313 61.9621 111.692 61.2746 111.238 60.3807C110.787 59.4867 110.562 58.4205 110.562 57.1818C110.562 55.9394 110.789 54.8731 111.243 53.983C111.698 53.089 112.319 52.4034 113.107 51.9261C113.895 51.4451 114.791 51.2045 115.794 51.2045C116.412 51.2045 116.988 51.2936 117.522 51.4716C118.06 51.6458 118.543 51.9034 118.971 52.2443C119.399 52.5814 119.753 52.9943 120.033 53.483C120.313 53.9678 120.503 54.5227 120.601 55.1477ZM121.926 63V54.2727H123.568V55.6591H123.659C123.818 55.1894 124.098 54.8201 124.5 54.5511C124.905 54.2784 125.363 54.142 125.875 54.142C125.981 54.142 126.106 54.1458 126.25 54.1534C126.397 54.161 126.513 54.1705 126.596 54.1818V55.8068C126.528 55.7879 126.407 55.767 126.233 55.7443C126.058 55.7178 125.884 55.7045 125.71 55.7045C125.308 55.7045 124.95 55.7898 124.636 55.9602C124.325 56.1269 124.079 56.3598 123.897 56.6591C123.716 56.9545 123.625 57.2917 123.625 57.6705V63H121.926ZM130.875 63.1761C130.015 63.1761 129.275 62.9924 128.654 62.625C128.036 62.2538 127.559 61.733 127.222 61.0625C126.889 60.3883 126.722 59.5985 126.722 58.6932C126.722 57.7992 126.889 57.0114 127.222 56.3295C127.559 55.6477 128.029 55.1155 128.631 54.733C129.237 54.3504 129.945 54.1591 130.756 54.1591C131.248 54.1591 131.726 54.2405 132.188 54.4034C132.65 54.5663 133.065 54.822 133.432 55.1705C133.8 55.5189 134.089 55.9716 134.301 56.5284C134.514 57.0814 134.62 57.7538 134.62 58.5455V59.1477H127.682V57.875H132.955C132.955 57.428 132.864 57.0322 132.682 56.6875C132.5 56.339 132.245 56.0644 131.915 55.8636C131.589 55.6629 131.207 55.5625 130.767 55.5625C130.29 55.5625 129.873 55.6799 129.517 55.9148C129.165 56.1458 128.892 56.4489 128.699 56.8239C128.51 57.1951 128.415 57.5985 128.415 58.0341V59.0284C128.415 59.6117 128.517 60.108 128.722 60.517C128.93 60.9261 129.22 61.2386 129.591 61.4545C129.962 61.6667 130.396 61.7727 130.892 61.7727C131.214 61.7727 131.508 61.7273 131.773 61.6364C132.038 61.5417 132.267 61.4015 132.46 61.2159C132.654 61.0303 132.801 60.8011 132.904 60.5284L134.512 60.8182C134.383 61.2917 134.152 61.7064 133.818 62.0625C133.489 62.4148 133.074 62.6894 132.574 62.8864C132.078 63.0795 131.512 63.1761 130.875 63.1761ZM138.404 63.1932C137.851 63.1932 137.351 63.0909 136.904 62.8864C136.457 62.678 136.103 62.3769 135.842 61.983C135.584 61.589 135.455 61.1061 135.455 60.5341C135.455 60.0417 135.55 59.6364 135.74 59.3182C135.929 59 136.185 58.7481 136.507 58.5625C136.829 58.3769 137.188 58.2367 137.586 58.142C137.984 58.0473 138.389 57.9754 138.802 57.9261C139.325 57.8655 139.749 57.8163 140.075 57.7784C140.401 57.7367 140.637 57.6705 140.785 57.5795C140.933 57.4886 141.007 57.3409 141.007 57.1364V57.0966C141.007 56.6004 140.866 56.2159 140.586 55.9432C140.31 55.6705 139.897 55.5341 139.347 55.5341C138.776 55.5341 138.325 55.661 137.995 55.9148C137.669 56.1648 137.444 56.4432 137.319 56.75L135.722 56.3864C135.912 55.8561 136.188 55.428 136.552 55.1023C136.919 54.7727 137.342 54.5341 137.819 54.3864C138.296 54.2348 138.798 54.1591 139.325 54.1591C139.673 54.1591 140.043 54.2008 140.433 54.2841C140.827 54.3636 141.194 54.5114 141.535 54.7273C141.88 54.9432 142.162 55.2519 142.382 55.6534C142.601 56.0511 142.711 56.5682 142.711 57.2045V63H141.052V61.8068H140.984C140.874 62.0265 140.709 62.2424 140.49 62.4545C140.27 62.6667 139.988 62.8428 139.643 62.983C139.298 63.1231 138.885 63.1932 138.404 63.1932ZM138.774 61.8295C139.243 61.8295 139.645 61.7367 139.978 61.5511C140.315 61.3655 140.571 61.1231 140.745 60.8239C140.923 60.5208 141.012 60.197 141.012 59.8523V58.7273C140.952 58.7879 140.834 58.8447 140.66 58.8977C140.49 58.947 140.294 58.9905 140.075 59.0284C139.855 59.0625 139.641 59.0947 139.433 59.125C139.224 59.1515 139.05 59.1742 138.91 59.1932C138.58 59.2348 138.279 59.3049 138.007 59.4034C137.738 59.5019 137.522 59.6439 137.359 59.8295C137.2 60.0114 137.12 60.2538 137.12 60.5568C137.12 60.9773 137.276 61.2955 137.586 61.5114C137.897 61.7235 138.293 61.8295 138.774 61.8295ZM148.408 54.2727V55.6364H143.641V54.2727H148.408ZM144.919 52.1818H146.618V60.4375C146.618 60.767 146.667 61.0152 146.766 61.1818C146.864 61.3447 146.991 61.4564 147.146 61.517C147.305 61.5739 147.478 61.6023 147.663 61.6023C147.8 61.6023 147.919 61.5928 148.021 61.5739C148.124 61.5549 148.203 61.5398 148.26 61.5284L148.567 62.9318C148.468 62.9697 148.328 63.0076 148.146 63.0455C147.965 63.0871 147.737 63.1098 147.465 63.1136C147.018 63.1212 146.601 63.0417 146.215 62.875C145.828 62.7083 145.516 62.4508 145.277 62.1023C145.038 61.7538 144.919 61.3163 144.919 60.7898V52.1818ZM153.315 63.1761C152.455 63.1761 151.714 62.9924 151.093 62.625C150.476 62.2538 149.998 61.733 149.661 61.0625C149.328 60.3883 149.161 59.5985 149.161 58.6932C149.161 57.7992 149.328 57.0114 149.661 56.3295C149.998 55.6477 150.468 55.1155 151.07 54.733C151.676 54.3504 152.385 54.1591 153.195 54.1591C153.688 54.1591 154.165 54.2405 154.627 54.4034C155.089 54.5663 155.504 54.822 155.871 55.1705C156.239 55.5189 156.529 55.9716 156.741 56.5284C156.953 57.0814 157.059 57.7538 157.059 58.5455V59.1477H150.121V57.875H155.394C155.394 57.428 155.303 57.0322 155.121 56.6875C154.94 56.339 154.684 56.0644 154.354 55.8636C154.029 55.6629 153.646 55.5625 153.207 55.5625C152.729 55.5625 152.313 55.6799 151.957 55.9148C151.604 56.1458 151.332 56.4489 151.139 56.8239C150.949 57.1951 150.854 57.5985 150.854 58.0341V59.0284C150.854 59.6117 150.957 60.108 151.161 60.517C151.37 60.9261 151.659 61.2386 152.031 61.4545C152.402 61.6667 152.835 61.7727 153.332 61.7727C153.654 61.7727 153.947 61.7273 154.212 61.6364C154.478 61.5417 154.707 61.4015 154.9 61.2159C155.093 61.0303 155.241 60.8011 155.343 60.5284L156.951 60.8182C156.822 61.2917 156.591 61.7064 156.258 62.0625C155.928 62.4148 155.514 62.6894 155.014 62.8864C154.517 63.0795 153.951 63.1761 153.315 63.1761ZM163.018 63H161.154L165.341 51.3636H167.37L171.557 63H169.694L166.404 53.4773H166.313L163.018 63ZM163.33 58.4432H169.376V59.9205H163.33V58.4432ZM178.939 56.4034L177.399 56.6761C177.335 56.4792 177.232 56.2917 177.092 56.1136C176.956 55.9356 176.77 55.7898 176.535 55.6761C176.3 55.5625 176.007 55.5057 175.655 55.5057C175.174 55.5057 174.772 55.6136 174.45 55.8295C174.128 56.0417 173.967 56.3163 173.967 56.6534C173.967 56.9451 174.075 57.1799 174.291 57.358C174.507 57.536 174.855 57.6818 175.336 57.7955L176.723 58.1136C177.526 58.2992 178.124 58.5852 178.518 58.9716C178.912 59.358 179.109 59.8598 179.109 60.4773C179.109 61 178.958 61.4659 178.655 61.875C178.355 62.2803 177.937 62.5985 177.399 62.8295C176.865 63.0606 176.245 63.1761 175.541 63.1761C174.564 63.1761 173.766 62.9678 173.149 62.5511C172.531 62.1307 172.153 61.5341 172.013 60.7614L173.655 60.5114C173.757 60.9394 173.967 61.2633 174.285 61.483C174.603 61.6989 175.018 61.8068 175.53 61.8068C176.086 61.8068 176.531 61.6913 176.865 61.4602C177.198 61.2254 177.365 60.9394 177.365 60.6023C177.365 60.3295 177.263 60.1004 177.058 59.9148C176.857 59.7292 176.549 59.589 176.132 59.4943L174.655 59.1705C173.84 58.9848 173.238 58.6894 172.848 58.2841C172.461 57.8788 172.268 57.3655 172.268 56.7443C172.268 56.2292 172.412 55.7784 172.7 55.392C172.988 55.0057 173.386 54.7045 173.893 54.4886C174.401 54.2689 174.982 54.1591 175.638 54.1591C176.581 54.1591 177.323 54.3636 177.865 54.7727C178.406 55.178 178.764 55.7216 178.939 56.4034ZM186.877 56.4034L185.337 56.6761C185.273 56.4792 185.17 56.2917 185.03 56.1136C184.894 55.9356 184.708 55.7898 184.473 55.6761C184.239 55.5625 183.945 55.5057 183.593 55.5057C183.112 55.5057 182.71 55.6136 182.388 55.8295C182.066 56.0417 181.905 56.3163 181.905 56.6534C181.905 56.9451 182.013 57.1799 182.229 57.358C182.445 57.536 182.793 57.6818 183.275 57.7955L184.661 58.1136C185.464 58.2992 186.062 58.5852 186.456 58.9716C186.85 59.358 187.047 59.8598 187.047 60.4773C187.047 61 186.896 61.4659 186.593 61.875C186.293 62.2803 185.875 62.5985 185.337 62.8295C184.803 63.0606 184.184 63.1761 183.479 63.1761C182.502 63.1761 181.704 62.9678 181.087 62.5511C180.47 62.1307 180.091 61.5341 179.951 60.7614L181.593 60.5114C181.695 60.9394 181.905 61.2633 182.223 61.483C182.542 61.6989 182.956 61.8068 183.468 61.8068C184.025 61.8068 184.47 61.6913 184.803 61.4602C185.136 61.2254 185.303 60.9394 185.303 60.6023C185.303 60.3295 185.201 60.1004 184.996 59.9148C184.795 59.7292 184.487 59.589 184.07 59.4943L182.593 59.1705C181.778 58.9848 181.176 58.6894 180.786 58.2841C180.4 57.8788 180.206 57.3655 180.206 56.7443C180.206 56.2292 180.35 55.7784 180.638 55.392C180.926 55.0057 181.324 54.7045 181.831 54.4886C182.339 54.2689 182.92 54.1591 183.576 54.1591C184.519 54.1591 185.261 54.3636 185.803 54.7727C186.345 55.178 186.703 55.7216 186.877 56.4034ZM188.275 63V54.2727H189.974V63H188.275ZM189.133 52.9261C188.838 52.9261 188.584 52.8277 188.372 52.6307C188.163 52.4299 188.059 52.1913 188.059 51.9148C188.059 51.6345 188.163 51.3958 188.372 51.1989C188.584 50.9981 188.838 50.8977 189.133 50.8977C189.429 50.8977 189.68 50.9981 189.889 51.1989C190.101 51.3958 190.207 51.6345 190.207 51.9148C190.207 52.1913 190.101 52.4299 189.889 52.6307C189.68 52.8277 189.429 52.9261 189.133 52.9261ZM195.279 66.4545C194.585 66.4545 193.989 66.3636 193.489 66.1818C192.993 66 192.587 65.7595 192.273 65.4602C191.959 65.161 191.724 64.8333 191.568 64.4773L193.029 63.875C193.131 64.0417 193.267 64.2178 193.438 64.4034C193.612 64.5928 193.847 64.7538 194.142 64.8864C194.442 65.0189 194.826 65.0852 195.296 65.0852C195.94 65.0852 196.472 64.928 196.892 64.6136C197.313 64.303 197.523 63.8068 197.523 63.125V61.4091H197.415C197.313 61.5947 197.165 61.8011 196.972 62.0284C196.782 62.2557 196.521 62.4527 196.188 62.6193C195.854 62.786 195.421 62.8693 194.887 62.8693C194.197 62.8693 193.576 62.7083 193.023 62.3864C192.474 62.0606 192.038 61.5814 191.716 60.9489C191.398 60.3125 191.239 59.5303 191.239 58.6023C191.239 57.6742 191.396 56.8788 191.71 56.2159C192.029 55.553 192.464 55.0455 193.017 54.6932C193.57 54.3371 194.197 54.1591 194.898 54.1591C195.44 54.1591 195.877 54.25 196.21 54.4318C196.544 54.6098 196.803 54.8182 196.989 55.0568C197.178 55.2955 197.324 55.5057 197.426 55.6875H197.551V54.2727H199.216V63.1932C199.216 63.9432 199.042 64.5587 198.693 65.0398C198.345 65.5208 197.873 65.8769 197.279 66.108C196.688 66.339 196.021 66.4545 195.279 66.4545ZM195.262 61.4602C195.75 61.4602 196.163 61.3466 196.5 61.1193C196.841 60.8883 197.099 60.5587 197.273 60.1307C197.451 59.6989 197.54 59.1818 197.54 58.5795C197.54 57.9924 197.453 57.4754 197.279 57.0284C197.104 56.5814 196.849 56.233 196.512 55.983C196.174 55.7292 195.758 55.6023 195.262 55.6023C194.75 55.6023 194.324 55.7348 193.983 56C193.642 56.2614 193.385 56.6174 193.21 57.0682C193.04 57.5189 192.955 58.0227 192.955 58.5795C192.955 59.1515 193.042 59.6534 193.216 60.0852C193.39 60.517 193.648 60.8542 193.989 61.0966C194.334 61.339 194.758 61.4602 195.262 61.4602ZM202.553 57.8182V63H200.855V54.2727H202.485V55.6932H202.593C202.794 55.2311 203.108 54.8598 203.536 54.5795C203.968 54.2992 204.512 54.1591 205.167 54.1591C205.762 54.1591 206.283 54.2841 206.73 54.5341C207.177 54.7803 207.523 55.1477 207.769 55.6364C208.016 56.125 208.139 56.7292 208.139 57.4489V63H206.44V57.6534C206.44 57.0208 206.275 56.5265 205.945 56.1705C205.616 55.8106 205.163 55.6307 204.587 55.6307C204.194 55.6307 203.843 55.7159 203.536 55.8864C203.233 56.0568 202.993 56.3068 202.815 56.6364C202.641 56.9621 202.553 57.3561 202.553 57.8182ZM209.777 63V54.2727H211.408V55.6932H211.516C211.697 55.2121 211.995 54.8371 212.408 54.5682C212.821 54.2955 213.315 54.1591 213.891 54.1591C214.474 54.1591 214.963 54.2955 215.357 54.5682C215.754 54.8409 216.048 55.2159 216.237 55.6932H216.328C216.537 55.2273 216.868 54.8561 217.322 54.5795C217.777 54.2992 218.319 54.1591 218.947 54.1591C219.739 54.1591 220.385 54.4072 220.885 54.9034C221.389 55.3996 221.641 56.1477 221.641 57.1477V63H219.942V57.3068C219.942 56.7159 219.781 56.2879 219.459 56.0227C219.137 55.7576 218.752 55.625 218.305 55.625C217.752 55.625 217.322 55.7955 217.016 56.1364C216.709 56.4735 216.555 56.9072 216.555 57.4375V63H214.862V57.1989C214.862 56.7254 214.715 56.3447 214.419 56.0568C214.124 55.7689 213.739 55.625 213.266 55.625C212.944 55.625 212.646 55.7102 212.374 55.8807C212.105 56.0473 211.887 56.2803 211.72 56.5795C211.557 56.8788 211.476 57.2254 211.476 57.6193V63H209.777ZM227.039 63.1761C226.179 63.1761 225.439 62.9924 224.817 62.625C224.2 62.2538 223.723 61.733 223.386 61.0625C223.052 60.3883 222.886 59.5985 222.886 58.6932C222.886 57.7992 223.052 57.0114 223.386 56.3295C223.723 55.6477 224.192 55.1155 224.795 54.733C225.401 54.3504 226.109 54.1591 226.92 54.1591C227.412 54.1591 227.889 54.2405 228.352 54.4034C228.814 54.5663 229.228 54.822 229.596 55.1705C229.963 55.5189 230.253 55.9716 230.465 56.5284C230.677 57.0814 230.783 57.7538 230.783 58.5455V59.1477H223.846V57.875H229.119C229.119 57.428 229.028 57.0322 228.846 56.6875C228.664 56.339 228.408 56.0644 228.079 55.8636C227.753 55.6629 227.37 55.5625 226.931 55.5625C226.454 55.5625 226.037 55.6799 225.681 55.9148C225.329 56.1458 225.056 56.4489 224.863 56.8239C224.673 57.1951 224.579 57.5985 224.579 58.0341V59.0284C224.579 59.6117 224.681 60.108 224.886 60.517C225.094 60.9261 225.384 61.2386 225.755 61.4545C226.126 61.6667 226.56 61.7727 227.056 61.7727C227.378 61.7727 227.672 61.7273 227.937 61.6364C228.202 61.5417 228.431 61.4015 228.624 61.2159C228.817 61.0303 228.965 60.8011 229.067 60.5284L230.675 60.8182C230.547 61.2917 230.316 61.7064 229.982 62.0625C229.653 62.4148 229.238 62.6894 228.738 62.8864C228.242 63.0795 227.675 63.1761 227.039 63.1761ZM233.727 57.8182V63H232.028V54.2727H233.659V55.6932H233.767C233.968 55.2311 234.282 54.8598 234.71 54.5795C235.142 54.2992 235.685 54.1591 236.341 54.1591C236.935 54.1591 237.456 54.2841 237.903 54.5341C238.35 54.7803 238.697 55.1477 238.943 55.6364C239.189 56.125 239.312 56.7292 239.312 57.4489V63H237.614V57.6534C237.614 57.0208 237.449 56.5265 237.119 56.1705C236.79 55.8106 236.337 55.6307 235.761 55.6307C235.367 55.6307 235.017 55.7159 234.71 55.8864C234.407 56.0568 234.167 56.3068 233.989 56.6364C233.814 56.9621 233.727 57.3561 233.727 57.8182ZM245.025 54.2727V55.6364H240.258V54.2727H245.025ZM241.536 52.1818H243.235V60.4375C243.235 60.767 243.284 61.0152 243.383 61.1818C243.481 61.3447 243.608 61.4564 243.763 61.517C243.922 61.5739 244.095 61.6023 244.28 61.6023C244.417 61.6023 244.536 61.5928 244.638 61.5739C244.741 61.5549 244.82 61.5398 244.877 61.5284L245.184 62.9318C245.085 62.9697 244.945 63.0076 244.763 63.0455C244.581 63.0871 244.354 63.1098 244.081 63.1136C243.634 63.1212 243.218 63.0417 242.831 62.875C242.445 62.7083 242.133 62.4508 241.894 62.1023C241.655 61.7538 241.536 61.3163 241.536 60.7898V52.1818Z" fill="white"/>
</g>
<defs>
<filter id="filter0_ddii_2_10598" x="-13.5" y="0" width="355" height="162" filterUnits="userSpaceOnUse" color-interpolation-filters="sRGB">
<feFlood flood-opacity="0" result="BackgroundImageFix"/>
<feColorMatrix in="SourceAlpha" type="matrix" values="0 0 0 0 0 0 0 0 0 0 0 0 0 0 0 0 0 0 127 0" result="hardAlpha"/>
<feOffset dy="32"/>
<feGaussianBlur stdDeviation="24"/>
<feComposite in2="hardAlpha" operator="out"/>
<feColorMatrix type="matrix" values="0 0 0 0 1 0 0 0 0 1 0 0 0 0 1 0 0 0 0.2 0"/>
<feBlend mode="normal" in2="BackgroundImageFix" result="effect1_dropShadow_2_10598"/>
<feColorMatrix in="SourceAlpha" type="matrix" values="0 0 0 0 0 0 0 0 0 0 0 0 0 0 0 0 0 0 127 0" result="hardAlpha"/>
<feOffset dy="16"/>
<feGaussianBlur stdDeviation="24"/>
<feComposite in2="hardAlpha" operator="out"/>
<feColorMatrix type="matrix" values="0 0 0 0 1 0 0 0 0 1 0 0 0 0 1 0 0 0 0.12 0"/>
<feBlend mode="normal" in2="effect1_dropShadow_2_10598" result="effect2_dropShadow_2_10598"/>
<feBlend mode="normal" in="SourceGraphic" in2="effect2_dropShadow_2_10598" result="shape"/>
<feColorMatrix in="SourceAlpha" type="matrix" values="0 0 0 0 0 0 0 0 0 0 0 0 0 0 0 0 0 0 127 0" result="hardAlpha"/>
<feOffset/>
<feGaussianBlur stdDeviation="17.25"/>
<feComposite in2="hardAlpha" operator="arithmetic" k2="-1" k3="1"/>
<feColorMatrix type="matrix" values="0 0 0 0 1 0 0 0 0 1 0 0 0 0 1 0 0 0 0.25 0"/>
<feBlend mode="normal" in2="shape" result="effect3_innerShadow_2_10598"/>
<feColorMatrix in="SourceAlpha" type="matrix" values="0 0 0 0 0 0 0 0 0 0 0 0 0 0 0 0 0 0 127 0" result="hardAlpha"/>
<feOffset dy="-1"/>
<feGaussianBlur stdDeviation="1.75"/>
<feComposite in2="hardAlpha" operator="arithmetic" k2="-1" k3="1"/>
<feColorMatrix type="matrix" values="0 0 0 0 0.692308 0 0 0 0 0.692308 0 0 0 0 0.692308 0 0 0 0.6 0"/>
<feBlend mode="normal" in2="effect3_innerShadow_2_10598" result="effect4_innerShadow_2_10598"/>
</filter>
<linearGradient id="paint0_linear_2_10598" x1="164" y1="36" x2="164" y2="78" gradientUnits="userSpaceOnUse">
<stop stop-color="#FF7950"/>
<stop offset="1" stop-color="#C0350A"/>
</linearGradient>
</defs>
</svg>
